<svg width="100" height="100" viewBox="0 0 100 100" fill="none" xmlns="http://www.w3.org/2000/svg" role="img" aria-label="Hayya AI">
  <defs>
    <linearGradient id="gold" x1="0" y1="0" x2="1" y2="1">
      <stop offset="0" stop-color="#EAD9A6"/>
      <stop offset="0.5" stop-color="#D8B16A"/>
      <stop offset="1" stop-color="#A07C3A"/>
    </linearGradient>
    <linearGradient id="goldDk" x1="0" y1="0" x2="1" y2="1">
      <stop offset="0" stop-color="#D8B16A"/>
      <stop offset="1" stop-color="#8A6A2E"/>
    </linearGradient>
    <linearGradient id="crim" x1="0" y1="0" x2="1" y2="1">
      <stop offset="0" stop-color="#A81D45"/>
      <stop offset="0.55" stop-color="#5A1026"/>
      <stop offset="1" stop-color="#530E24"/>
    </linearGradient>
    <linearGradient id="crimDk" x1="0" y1="0" x2="1" y2="1">
      <stop offset="0" stop-color="#5A1026"/>
      <stop offset="1" stop-color="#3F0A1C"/>
    </linearGradient>
  </defs>
  <!-- Left pillar (faceted crimson/gold) -->
  <polygon points="20,14 36,14 36,86 20,86" fill="url(#crim)"/>
  <polygon points="20,14 36,14 20,50" fill="url(#crimDk)"/>
  <polygon points="20,86 36,50 36,86" fill="url(#goldDk)"/>
  <!-- Right pillar (faceted gold/crimson) -->
  <polygon points="64,14 80,14 80,86 64,86" fill="url(#gold)"/>
  <polygon points="64,14 80,14 80,50" fill="url(#goldDk)"/>
  <polygon points="64,86 64,50 80,86" fill="url(#crimDk)"/>
  <!-- Crossbar interlock -->
  <polygon points="36,40 64,40 64,60 36,60" fill="url(#gold)"/>
  <polygon points="36,40 64,60 36,60" fill="url(#crim)"/>
</svg>
